<?xml version="1.0" encoding="UTF-8"?>
<svg id="Layer_2" data-name="Layer 2" xmlns="http://www.w3.org/2000/svg" viewBox="0 0 122.73 122.73">
  <defs>
    <style>
      .cls-1 {
        fill: #111111;
      }
    </style>
  </defs>
  <g id="Layer_1-2" data-name="Layer 1" transform="translate(0.513 0.399) scale(1.19397 0.99675)">
    <path class="cls-1" d="M90.38,25.41c5.92-.52,10.75-5.16,11.49-11.05,.5-3.96-.83-7.83-3.64-10.64-2.81-2.8-6.69-4.12-10.64-3.62-5.78,.73-10.42,5.48-11.01,11.29-.3,2.9,.4,5.81,1.97,8.24l-11.78,11.35c-3.32-2.65-7.45-4.1-11.69-4.1-4,0-7.81,1.24-11.03,3.6l-11.78-12.4c1.48-2.26,2.03-4.96,1.55-7.67-.76-4.3-4.3-7.79-8.61-8.51-3.29-.54-6.56,.44-8.98,2.69-2.42,2.25-3.63,5.44-3.32,8.73,.46,4.88,4.31,8.86,9.17,9.47,2.35,.29,4.64-.17,6.65-1.35l11.78,12.4c-2.7,3.34-4.19,7.51-4.19,11.79,0,2.16,.37,4.29,1.1,6.32l-12.21,6.27c-3.07-4.04-8.06-6.11-13.12-5.42-6.24,.84-11.17,5.8-11.98,12.05-.54,4.17,.78,8.33,3.62,11.4,2.84,3.07,6.87,4.71,11.05,4.49,6.71-.35,12.38-5.64,13.19-12.31,.24-1.99,.07-3.96-.52-5.86l12.21-6.27c2.13,3.07,5.16,5.47,8.6,6.82v10.02c-6.11,.31-10.33,4.66-10.33,10.75,0,.06,0,.12,0,.18l.79,10.79c.29,3.9,2.6,7.3,6.53,9.59l5.16,3c.54,.31,.87,.9,.87,1.52v11.61c0,1.18,.96,2.15,2.15,2.15s2.15-.96,2.15-2.15v-14.23l-.05-.21c-.57-1.22-1.49-2.22-2.66-2.91l-5.16-3c-1.76-1.03-3.9-2.85-4.12-5.72l-.78-10.67c.03-3.35,2.1-5.53,5.45-5.79v10.15c0,1.24,.88,2.32,2.04,2.51,.72,.12,1.44-.08,1.99-.55s.86-1.14,.86-1.86V46.16c0-1.33,.89-2.47,2.11-2.71,.79-.15,1.6,.05,2.21,.55,.61,.5,.96,1.25,.96,2.04v35.48c0,1.24,.88,2.32,2.04,2.51,.72,.12,1.44-.08,1.99-.55,.55-.46,.86-1.14,.86-1.86v-8.18c.35-1.16,1.42-1.96,2.62-1.96,1.47,0,2.7,1.2,2.73,2.66v8.36c0,1.25,.88,2.33,2.04,2.51,.72,.12,1.44-.08,1.99-.55,.55-.47,.86-1.14,.86-1.86v-7.82c.35-.44,.85-.74,1.39-.84,.41-.08,1.04-.06,1.69,.4,.59,.42,.95,1.15,.95,1.96v9.02c0,1.24,.88,2.32,2.04,2.51,.72,.12,1.44-.08,1.99-.55,.55-.46,.86-1.14,.86-1.86v-7.51c.45-.32,.99-.46,1.55-.37,1.04,.15,1.82,1.13,1.82,2.27v20.86c0,1.93-.4,3.58-1.19,4.92-.17,.29-.32,.6-.45,.92h-.16v13.91c0,1.27,1.03,2.3,2.3,2.3s2.3-1.03,2.3-2.3v-11.46c0-.3,.06-.57,.18-.81,1.32-2.59,1.9-4.66,1.9-6.72v-21.41c0-2.59-1.21-4.93-3.24-6.26-1.74-1.14-3.83-1.43-5.79-.84-1.21-2.39-3.67-3.91-6.37-3.91-1.11,0-2.2,.26-3.2,.77-1.44-2.02-3.72-3.21-6.19-3.21-.89,0-1.78,.16-2.62,.47v-4.56c5.61-2.75,9.54-8.22,10.36-14.42h8.75c1.16,4.11,5.15,6.9,9.44,6.55,4.5-.37,8.13-4.2,8.26-8.72,.07-2.46-.84-4.79-2.55-6.55-1.72-1.77-4.01-2.74-6.47-2.74h0c-4.08,0-7.59,2.68-8.68,6.58h-8.74c-.41-3.14-1.62-6.13-3.52-8.7l11.78-11.35c2.45,1.72,5.43,2.52,8.43,2.26ZM29.1,12.32c0,3.13-2.55,5.68-5.68,5.68s-5.68-2.55-5.68-5.68,2.55-5.67,5.68-5.67,5.68,2.55,5.68,5.67ZM63.32,56.8v-10.77c0-4.15-3.38-7.52-7.52-7.52s-7.52,3.38-7.52,7.52v11.69c-4.31-2.44-7.06-7.1-7.06-12.08,0-7.65,6.22-13.88,13.88-13.88s13.88,6.22,13.88,13.88c0,4.36-2.14,8.56-5.64,11.16ZM81.4,12.73c0-2.09,.82-4.06,2.3-5.54s3.45-2.3,5.54-2.3c4.32,0,7.84,3.52,7.84,7.84s-3.52,7.84-7.84,7.84-7.84-3.52-7.84-7.84ZM23.19,66.72c0,2.44-.95,4.74-2.68,6.47s-4.03,2.68-6.47,2.68c-5.05,0-9.15-4.11-9.15-9.16s4.11-9.15,9.15-9.15,9.15,4.11,9.15,9.15Zm63.79-21.08c0-2.28,1.85-4.13,4.13-4.13s4.13,1.85,4.13,4.13-1.85,4.13-4.13,4.13-4.13-1.85-4.13-4.13Z"/>
  </g>
</svg>
