<?xml version="1.0" encoding="UTF-8" standalone="no"?>
<svg
   id="Layer_1"
   version="1.2"
   viewBox="0 0 402.56631 500.04999"
   xml:space="preserve"
   sodipodi:docname="save_as.svg"
   width="402.56631"
   height="500.04999"
   inkscape:version="1.1.2 (0a00cf5339, 2022-02-04)"
   xmlns:inkscape="http://www.inkscape.org/namespaces/inkscape"
   xmlns:sodipodi="http://sodipodi.sourceforge.net/DTD/sodipodi-0.dtd"
   xmlns="http://www.w3.org/2000/svg"
   xmlns:svg="http://www.w3.org/2000/svg"><defs
     id="defs916" /><sodipodi:namedview
     id="namedview914"
     pagecolor="#ffffff"
     bordercolor="#666666"
     borderopacity="1.0"
     inkscape:pageshadow="2"
     inkscape:pageopacity="0.0"
     inkscape:pagecheckerboard="0"
     showgrid="false"
     fit-margin-top="0"
     fit-margin-left="0"
     fit-margin-right="0"
     fit-margin-bottom="0"
     inkscape:zoom="1.4101562"
     inkscape:cx="343.93352"
     inkscape:cy="250.32687"
     inkscape:window-width="1680"
     inkscape:window-height="989"
     inkscape:window-x="0"
     inkscape:window-y="0"
     inkscape:window-maximized="1"
     inkscape:current-layer="Layer_1" /><g
     id="XMLID_1147_"
     transform="translate(-54.7,-5.95)"><rect
       fill="#f68e1c"
       height="19.1"
       id="XMLID_335_"
       width="227.10001"
       x="120.3"
       y="158.60001" /><rect
       fill="#f68e1c"
       height="19.1"
       id="XMLID_334_"
       width="227.10001"
       x="120.3"
       y="189.60001" /><rect
       fill="#f68e1c"
       height="19.1"
       id="XMLID_333_"
       width="227.10001"
       x="120.3"
       y="220.7" /><rect
       fill="#f68e1c"
       height="19.1"
       id="XMLID_332_"
       width="227.10001"
       x="120.3"
       y="251.7" /><rect
       fill="#f68e1c"
       height="19.1"
       id="XMLID_331_"
       width="176.5"
       x="120.3"
       y="282.70001" /><path
       d="M 456.1,75.1 397.6,7.3 c -1.8,-1.8 -4.9,-1.8 -6.7,0 l -58.5,67.8 c -2.6,2.6 -0.6,6.7 3.3,6.7 h 27.4 V 135 h 62.1 V 81.8 h 27.4 c 4.1,0 6.1,-4.1 3.5,-6.7 z"
       fill="#f68e1c"
       id="XMLID_330_" /><rect
       fill="#f68e1c"
       height="24.200001"
       id="XMLID_329_"
       width="62.099998"
       x="363.20001"
       y="144.60001" /><path
       d="m 363.2,187.3 c 0,2.2 2,4 4.5,4 h 53.1 c 2.5,0 4.5,-1.8 4.5,-4 v -8.9 h -62.1 z"
       fill="#f68e1c"
       id="XMLID_328_" /><path
       d="m 386.7,464.2 c 0,15.8 -12.8,28.6 -28.6,28.6 H 109.5 C 93.7,492.8 80.9,480 80.9,464.2 v -8.8 H 67.7 V 469 c 0,20.5 16.6,37 37,37 h 258.1 c 20.5,0 37,-16.6 37,-37 V 200.4 h -13.2 v 263.8 z"
       fill="#f68e1c"
       id="XMLID_327_" /><path
       d="m 80.9,110.3 c 0,-15.8 12.8,-28.6 28.6,-28.6 h 213.2 c -1.4,-4.4 -0.3,-9.3 3,-12.7 l 0.4,-0.4 H 104.8 c -20.5,0 -37,16.6 -37,37 V 333 H 81 V 110.3 Z"
       fill="#f68e1c"
       id="XMLID_326_" /><path
       d="m 345.4,394.3 v 0 c 0,-28.7 -23.3,-52.1 -52.1,-52.1 H 54.7 v 104.1 h 238.7 c 28.7,0 52,-23.3 52,-52 z m -181.3,23.5 c -3.5,2.6 -8,4 -13.7,4 -5.4,0 -10.2,-1.4 -14.2,-4.3 -4,-2.9 -6,-7 -5.9,-12.2 l 0.1,-0.2 h 8.6 c 0,3.2 1.1,5.6 3.3,7.3 2.2,1.6 4.9,2.4 8.1,2.4 3.2,0 5.6,-0.7 7.4,-2 1.7,-1.3 2.6,-3.1 2.6,-5.4 0,-2.2 -0.8,-4.1 -2.4,-5.5 -1.6,-1.4 -4.4,-2.7 -8.4,-3.8 -5.8,-1.6 -10.2,-3.7 -13.3,-6.3 -3.1,-2.6 -4.7,-6 -4.7,-10.1 0,-4.3 1.7,-7.9 5.1,-10.6 3.4,-2.8 7.8,-4.2 13.2,-4.2 5.8,0 10.4,1.5 13.9,4.6 3.5,3.1 5.1,6.9 5,11.5 l -0.1,0.2 h -8.6 c 0,-2.8 -0.9,-5.1 -2.8,-6.7 -1.9,-1.7 -4.4,-2.5 -7.5,-2.5 -3,0 -5.3,0.7 -7,2.1 -1.6,1.4 -2.4,3.3 -2.4,5.5 0,2.1 0.9,3.8 2.7,5.1 1.8,1.3 4.7,2.6 8.9,3.8 5.6,1.6 9.9,3.7 12.8,6.4 2.9,2.7 4.4,6.2 4.4,10.4 0.1,4.3 -1.6,7.8 -5.1,10.5 z m 39.1,3.2 h -8.5 l -19.1,-53.5 h 9.5 l 12.7,39 1,3.9 h 0.2 l 0.9,-3.8 12.8,-39 h 9.5 z m 66.6,-7.2 c -1.5,2.1 -3.8,3.9 -7,5.6 -3.2,1.6 -7.4,2.4 -12.5,2.4 -6.3,0 -11.5,-2 -15.6,-6.1 -4.1,-4.1 -6.1,-9.3 -6.1,-15.8 v -11.2 c 0,-6.5 2,-11.7 5.9,-15.8 3.9,-4.1 9,-6.1 15.2,-6.1 6.2,0 11.1,1.6 14.5,4.7 3.5,3.1 5.2,7.2 5.1,12.3 l -0.1,0.2 h -8.5 c 0,-3 -0.9,-5.4 -2.8,-7.3 -1.9,-1.9 -4.6,-2.8 -8.1,-2.8 -3.7,0 -6.7,1.4 -8.9,4.1 -2.3,2.8 -3.4,6.3 -3.4,10.5 v 11.2 c 0,4.3 1.2,7.9 3.5,10.6 2.4,2.8 5.4,4.2 9.2,4.2 2.9,0 5.1,-0.3 6.8,-1 1.7,-0.6 2.9,-1.4 3.8,-2.4 V 400 h -11.2 v -6.7 h 20.1 v 20.5 z"
       fill="#f68e1c"
       id="XMLID_1148_" /></g></svg>
