<?xml version="1.0" encoding="UTF-8" standalone="no"?>
<svg
   id="Layer_1"
   version="1.2"
   viewBox="0 0 402.56631 500.04999"
   xml:space="preserve"
   sodipodi:docname="save_as.svg"
   width="402.56631"
   height="500.04999"
   inkscape:version="1.1.2 (0a00cf5339, 2022-02-04)"
   xmlns:inkscape="http://www.inkscape.org/namespaces/inkscape"
   xmlns:sodipodi="http://sodipodi.sourceforge.net/DTD/sodipodi-0.dtd"
   xmlns="http://www.w3.org/2000/svg"
   xmlns:svg="http://www.w3.org/2000/svg"><defs
     id="defs916" /><sodipodi:namedview
     id="namedview914"
     pagecolor="#ffffff"
     bordercolor="#666666"
     borderopacity="1.0"
     inkscape:pageshadow="2"
     inkscape:pageopacity="0.0"
     inkscape:pagecheckerboard="0"
     showgrid="false"
     fit-margin-top="0"
     fit-margin-left="0"
     fit-margin-right="0"
     fit-margin-bottom="0"
     inkscape:zoom="1.4101562"
     inkscape:cx="149.62881"
     inkscape:cy="250.32688"
     inkscape:window-width="1680"
     inkscape:window-height="989"
     inkscape:window-x="0"
     inkscape:window-y="0"
     inkscape:window-maximized="1"
     inkscape:current-layer="XMLID_1147_" /><g
     id="XMLID_1147_"
     transform="translate(-54.7,-5.95)"><path
       d="M 456.1,75.1 397.6,7.3 c -1.8,-1.8 -4.9,-1.8 -6.7,0 l -58.5,67.8 c -2.6,2.6 -0.6,6.7 3.3,6.7 h 27.4 V 135 h 62.1 V 81.8 h 27.4 c 4.1,0 6.1,-4.1 3.5,-6.7 z"
       fill="#f68e1c"
       id="XMLID_330_"
       style="fill:#000000;fill-opacity:1" /><rect
       fill="#f68e1c"
       height="24.200001"
       id="XMLID_329_"
       width="62.099998"
       x="363.20001"
       y="144.60001"
       style="fill:#000000;fill-opacity:1" /><path
       d="m 363.2,187.3 c 0,2.2 2,4 4.5,4 h 53.1 c 2.5,0 4.5,-1.8 4.5,-4 v -8.9 h -62.1 z"
       fill="#f68e1c"
       id="XMLID_328_"
       style="fill:#000000;fill-opacity:1" /><path
       d="m 386.7,464.2 c 0,15.8 -12.8,28.6 -28.6,28.6 H 109.5 C 93.7,492.8 80.9,480 80.9,464.2 v -8.8 H 67.7 V 469 c 0,20.5 16.6,37 37,37 h 258.1 c 20.5,0 37,-16.6 37,-37 V 200.4 h -13.2 v 263.8 z"
       fill="#f68e1c"
       id="XMLID_327_"
       style="fill:#000000;fill-opacity:1" /><path
       d="m 80.9,110.3 c 0,-15.8 12.8,-28.6 28.6,-28.6 h 213.2 c -1.4,-4.4 -0.3,-9.3 3,-12.7 l 0.4,-0.4 H 104.8 c -20.5,0 -37,16.6 -37,37 V 333 H 81 V 110.3 Z"
       fill="#f68e1c"
       id="XMLID_326_"
       style="fill:#000000;fill-opacity:1" /><path
       d="m 369.87241,350.39266 0.17728,-43.44598 c 0.25343,-62.10637 -40.18157,-88.13749 -83.82708,-87.69191 l -228.737196,2.33518 -1.407202,222.04274 239.196228,1.12188 c 43.49576,0.204 74.34454,-32.25556 74.59797,-94.36191 z m -216.13452,32.39421 c -5.3044,5.62641 -12.12439,8.65602 -20.76302,8.65602 -8.18395,0 -15.45858,-3.02961 -21.52076,-9.30522 -6.06219,-6.27561 -9.0933,-15.14802 -8.94175,-26.40083 l 0.15157,-0.43279 h 13.03372 c 0,6.9248 1.6671,12.11841 5.0013,15.79722 3.33421,3.4624 7.42618,5.1936 12.27592,5.1936 4.84977,0 8.48709,-1.5148 11.21506,-4.328 2.57644,-2.81321 3.94045,-6.70842 3.94045,-11.68562 0,-4.7608 -1.21246,-8.87241 -3.63734,-11.90201 -2.42486,-3.02961 -6.6684,-5.84281 -12.7306,-8.22321 -8.79017,-3.46241 -15.45858,-8.00681 -20.1568,-13.63321 -4.69817,-5.62641 -7.12305,-12.98401 -7.12305,-21.85643 0,-9.30522 2.57642,-17.09562 7.72929,-22.93842 5.15287,-6.05921 11.82128,-9.08882 20.00522,-9.08882 8.79019,0 15.76171,3.24601 21.06614,9.95442 5.30442,6.7084 7.72929,14.93161 7.57773,24.88602 l -0.15156,0.4328 H 147.6757 c 0,-6.0592 -1.36398,-11.0364 -4.24354,-14.49882 -2.87953,-3.67879 -6.66841,-5.40999 -11.3666,-5.40999 -4.54664,0 -8.0324,1.51479 -10.60884,4.54439 -2.42488,3.02961 -3.63732,7.14121 -3.63732,11.90202 0,4.54441 1.36401,8.22321 4.09198,11.03641 2.72798,2.8132 7.12308,5.62641 13.48838,8.22321 8.48708,3.4624 15.00393,8.00681 19.39901,13.84961 4.3951,5.84281 6.66841,13.41682 6.66841,22.50563 0.15157,9.30521 -2.42488,16.87922 -7.72929,22.72202 z m 59.25792,6.92482 H 200.11366 L 171.16669,273.93756 h 14.39771 l 19.24746,84.39608 1.51555,8.43962 h 0.30312 l 1.36399,-8.22321 19.39902,-84.3961 h 14.3977 z m 100.93551,-15.58083 c -2.27332,4.54441 -5.75907,8.43962 -10.60884,12.11841 -4.84974,3.46242 -11.21504,5.19362 -18.94433,5.19362 -9.54795,0 -17.42881,-4.32802 -23.64255,-13.20041 -6.21377,-8.87242 -9.24485,-20.12523 -9.24485,-34.19124 V 319.8144 c 0,-14.06602 3.03108,-25.31883 8.94173,-34.19124 5.91063,-8.8724 13.63992,-13.20041 23.03633,-13.20041 9.3964,0 16.82259,3.46241 21.97545,10.17082 5.30442,6.7084 7.88086,15.58081 7.72929,26.61722 l -0.15155,0.43281 h -12.88217 c 0,-6.49202 -1.36398,-11.68562 -4.24352,-15.79722 -2.87955,-4.1116 -6.97153,-6.05921 -12.27594,-6.05921 -5.60753,0 -10.15418,3.0296 -13.48837,8.87241 -3.48577,6.05921 -5.15288,13.63321 -5.15288,22.72203 v 24.23682 c 0,9.30522 1.81866,17.09563 5.30442,22.93843 3.63732,6.0592 8.18397,9.08881 13.94304,9.08881 4.39511,0 7.72931,-0.64921 10.30574,-2.16401 2.57642,-1.29839 4.39509,-3.02959 5.75908,-5.1936 v -24.02043 h -16.97414 v -14.49881 h 30.46251 v 44.36204 z"
       fill="#f68e1c"
       id="XMLID_1148_"
       style="stroke-width:1.81097;fill:#000000;fill-opacity:1"
       sodipodi:nodetypes="sssccsscssccccscsscsscssccccscsssscccccccccccccccssssssccccsscsscscccccccc" /></g></svg>
